<svg xmlns="http://www.w3.org/2000/svg" xmlns:xlink="http://www.w3.org/1999/xlink" width="500" zoomAndPan="magnify" viewBox="0 0 375 374.999991" height="500" preserveAspectRatio="xMidYMid meet" version="1.0"><defs><clipPath id="e608b6875f"><path d="M 264 37.5 L 312.941406 37.5 L 312.941406 89 L 264 89 Z M 264 37.5 " clip-rule="nonzero"/></clipPath><clipPath id="8cc60b3f3a"><path d="M 61.691406 149 L 145 149 L 145 231 L 61.691406 231 Z M 61.691406 149 " clip-rule="nonzero"/></clipPath><clipPath id="2c46c33987"><path d="M 67.386719 233.265625 L 149 233.265625 L 149 317.628906 L 67.386719 317.628906 Z M 67.386719 233.265625 " clip-rule="nonzero"/></clipPath></defs><rect x="-37.5" width="450" fill="#ffffff" y="-37.499999" height="449.999989" fill-opacity="1"/><rect x="-37.5" width="450" fill="#38b6ff" y="-37.499999" height="449.999989" fill-opacity="1"/><g clip-path="url(#e608b6875f)"><path fill="#ffffff" d="M 289.664062 43.722656 C 282.371094 46.253906 275.402344 49.046875 268.738281 52.101562 C 267.152344 52.835938 265.589844 53.574219 264.035156 54.3125 L 304.066406 88.597656 C 304.574219 86.949219 305.066406 85.28125 305.53125 83.613281 C 307.535156 76.539062 309.226562 69.242188 310.589844 61.632812 C 311.890625 53.988281 312.972656 46.144531 313.121094 37.503906 C 304.613281 38.992188 297.019531 41.257812 289.664062 43.722656 " fill-opacity="1" fill-rule="nonzero"/></g><path fill="#ffffff" d="M 264.40625 124.855469 C 257.28125 133.164062 244.785156 134.128906 236.476562 127.019531 C 228.171875 119.902344 227.195312 107.40625 234.304688 99.097656 C 241.429688 90.785156 253.941406 89.816406 262.242188 96.933594 C 270.546875 104.046875 271.523438 116.542969 264.40625 124.855469 Z M 231.628906 72.933594 C 208.6875 88.367188 188.929688 106.523438 171.554688 126.71875 C 154.207031 146.9375 139.292969 169.234375 127.558594 194.257812 C 126.101562 197.394531 124.691406 200.566406 123.328125 203.789062 C 122.003906 207.03125 120.648438 210.269531 119.433594 213.601562 C 118.609375 215.8125 117.816406 218.0625 117.035156 220.320312 L 162.683594 259.40625 C 164.800781 258.289062 166.894531 257.152344 168.957031 256.007812 C 172.070312 254.285156 175.042969 252.4375 178.0625 250.652344 C 181.023438 248.816406 183.949219 246.917969 186.828125 245 C 209.738281 229.550781 229.46875 211.375 246.785156 191.117188 C 264.050781 170.839844 278.949219 148.515625 290.664062 123.496094 C 294.867188 114.480469 298.636719 105.113281 301.914062 95.308594 L 257.730469 57.472656 C 248.554688 62.222656 239.871094 67.398438 231.628906 72.933594 " fill-opacity="1" fill-rule="nonzero"/><g clip-path="url(#8cc60b3f3a)"><path fill="#ffffff" d="M 116.128906 203.046875 L 116.933594 201.089844 C 118.265625 197.941406 119.699219 194.742188 121.265625 191.347656 C 127.757812 177.515625 135.425781 164.0625 144.203125 151.09375 L 114.1875 149.554688 L 61.871094 230.449219 L 113.71875 209.140625 C 114.515625 207.074219 115.324219 205.042969 116.128906 203.046875 " fill-opacity="1" fill-rule="nonzero"/></g><path fill="#ffffff" d="M 190.695312 250.734375 C 187.546875 252.835938 184.621094 254.742188 181.71875 256.539062 L 179.894531 257.632812 C 178.0625 258.734375 176.167969 259.867188 174.234375 260.964844 L 161.167969 315.46875 L 233.046875 251.320312 L 226.90625 221.894531 C 215.4375 232.578125 203.339844 242.21875 190.695312 250.734375 " fill-opacity="1" fill-rule="nonzero"/><g clip-path="url(#2c46c33987)"><path fill="#ffffff" d="M 122.351562 289.671875 C 124.621094 288.222656 129.183594 282.839844 133.710938 274.617188 C 119.699219 274.617188 104.636719 280.648438 96.574219 291.019531 C 100.59375 279.15625 95.933594 265.964844 115.738281 255.488281 C 105.71875 253.8125 99.660156 254.714844 92.925781 258.515625 C 96.480469 252.332031 98.765625 239.265625 115.292969 233.742188 C 87.6875 236.457031 79.761719 271.824219 70.796875 279.617188 C 82.273438 281.097656 83.089844 269.6875 95.984375 267.417969 C 71.761719 280.726562 78.1875 310.15625 67.609375 317.152344 C 96.164062 321.863281 99.359375 290.355469 116.089844 286.941406 C 101.359375 294.804688 102.996094 307.28125 101.671875 312.765625 C 108.109375 301.953125 142.792969 299.394531 148.964844 264.726562 C 145.496094 274.65625 131.890625 290.097656 122.351562 289.671875 " fill-opacity="1" fill-rule="nonzero"/></g></svg>